<?xml version="1.0" encoding="UTF-8" standalone="no"?>
<!-- Created with Inkscape (http://www.inkscape.org/) -->

<svg
   xmlns:dc="http://purl.org/dc/elements/1.1/"
   xmlns:cc="http://creativecommons.org/ns#"
   xmlns:rdf="http://www.w3.org/1999/02/22-rdf-syntax-ns#"
   xmlns:svg="http://www.w3.org/2000/svg"
   xmlns="http://www.w3.org/2000/svg"
   xmlns:sodipodi="http://sodipodi.sourceforge.net/DTD/sodipodi-0.dtd"
   xmlns:inkscape="http://www.inkscape.org/namespaces/inkscape"
   width="42"
   height="31.278999"
   id="svg3059"
   version="1.1"
   inkscape:version="0.48.4 r9939"
   sodipodi:docname="New document 4">
  <defs
     id="defs3061" />
  <sodipodi:namedview
     id="base"
     pagecolor="#ffffff"
     bordercolor="#666666"
     borderopacity="1.0"
     inkscape:pageopacity="0.0"
     inkscape:pageshadow="2"
     inkscape:zoom="1.4"
     inkscape:cx="-99.706655"
     inkscape:cy="67.90815"
     inkscape:document-units="px"
     inkscape:current-layer="layer1"
     showgrid="false"
     fit-margin-top="0"
     fit-margin-left="0"
     fit-margin-right="0"
     fit-margin-bottom="0"
     inkscape:window-width="863"
     inkscape:window-height="642"
     inkscape:window-x="423"
     inkscape:window-y="215"
     inkscape:window-maximized="0" />
  <metadata
     id="metadata3064">
    <rdf:RDF>
      <cc:Work
         rdf:about="">
        <dc:format>image/svg+xml</dc:format>
        <dc:type
           rdf:resource="http://purl.org/dc/dcmitype/StillImage" />
        <dc:title></dc:title>
      </cc:Work>
    </rdf:RDF>
  </metadata>
  <g
     inkscape:label="Layer 1"
     inkscape:groupmode="layer"
     id="layer1"
     transform="translate(-413.28571,-568.15125)">
    <polygon
       transform="translate(50.28571,533.15125)"
       style="fill:#65c178"
       points="363,58.208 363,59.217 363,66.279 370,59.217 405,59.217 405,35 363,35 "
       id="polygon2986" />
    <g
       transform="translate(50.28571,533.15125)"
       id="g3012">
      <path
         inkscape:connector-curvature="0"
         style="fill:#ffffff"
         d="m 369.749,41.708 h 2.823 c 1.326,0 2.285,0.198 2.878,0.595 0.593,0.397 0.889,1.023 0.889,1.88 0,0.592 -0.165,1.081 -0.495,1.466 -0.331,0.385 -0.812,0.635 -1.446,0.749 v 0.068 c 1.518,0.26 2.276,1.057 2.276,2.393 0,0.893 -0.302,1.59 -0.906,2.092 -0.604,0.501 -1.447,0.752 -2.532,0.752 h -3.486 v -9.995 z m 1.162,4.28 h 1.914 c 0.82,0 1.41,-0.129 1.771,-0.386 0.361,-0.257 0.54,-0.691 0.54,-1.302 0,-0.561 -0.2,-0.965 -0.602,-1.213 -0.402,-0.248 -1.039,-0.373 -1.914,-0.373 h -1.709 v 3.274 z m 0,0.984 v 3.739 h 2.085 c 0.807,0 1.414,-0.156 1.822,-0.468 0.407,-0.312 0.611,-0.801 0.611,-1.466 0,-0.62 -0.209,-1.076 -0.625,-1.367 -0.418,-0.292 -1.052,-0.438 -1.904,-0.438 h -1.989 z"
         id="path3014" />
      <path
         inkscape:connector-curvature="0"
         style="fill:#ffffff"
         d="m 382.515,51.84 c -1.107,0 -1.981,-0.338 -2.622,-1.012 -0.64,-0.675 -0.96,-1.611 -0.96,-2.81 0,-1.208 0.298,-2.167 0.892,-2.878 0.596,-0.711 1.394,-1.066 2.396,-1.066 0.938,0 1.682,0.309 2.229,0.926 0.547,0.617 0.82,1.432 0.82,2.444 v 0.718 h -5.161 c 0.022,0.879 0.245,1.547 0.667,2.003 0.421,0.456 1.015,0.683 1.78,0.683 0.807,0 1.604,-0.168 2.393,-0.505 v 1.011 c -0.401,0.174 -0.78,0.298 -1.138,0.373 -0.359,0.075 -0.79,0.113 -1.296,0.113 z m -2.598,-8.778 c 0.579,-0.62 0.984,-1.076 1.217,-1.367 0.233,-0.291 0.401,-0.531 0.506,-0.718 h 1.135 c 0.101,0.191 0.274,0.438 0.522,0.742 0.249,0.303 0.658,0.751 1.228,1.343 v 0.157 h -0.813 c -0.401,-0.25 -0.904,-0.674 -1.511,-1.271 -0.62,0.611 -1.119,1.035 -1.497,1.271 h -0.786 v -0.157 z m 2.29,1.962 c -0.602,0 -1.081,0.196 -1.439,0.588 -0.357,0.392 -0.568,0.934 -0.632,1.627 h 3.917 c 0,-0.715 -0.159,-1.264 -0.479,-1.644 -0.32,-0.38 -0.774,-0.571 -1.367,-0.571 z"
         id="path3016" />
      <path
         inkscape:connector-curvature="0"
         style="fill:#ffffff"
         d="m 390.324,50.902 c 0.2,0 0.395,-0.014 0.581,-0.044 0.186,-0.03 0.335,-0.061 0.444,-0.093 v 0.869 c -0.123,0.059 -0.305,0.107 -0.543,0.146 -0.24,0.039 -0.455,0.059 -0.646,0.059 -1.449,0 -2.174,-0.764 -2.174,-2.291 v -4.457 h -1.073 v -0.547 l 1.073,-0.472 0.479,-1.6 h 0.656 v 1.736 h 2.174 v 0.882 h -2.174 v 4.409 c 0,0.451 0.107,0.797 0.321,1.04 0.214,0.243 0.508,0.363 0.882,0.363 z"
         id="path3018" />
      <path
         inkscape:connector-curvature="0"
         style="fill:#ffffff"
         d="m 398.153,51.703 -0.226,-1.066 h -0.055 c -0.374,0.469 -0.746,0.787 -1.118,0.953 -0.371,0.166 -0.835,0.25 -1.391,0.25 -0.743,0 -1.325,-0.191 -1.746,-0.574 -0.422,-0.383 -0.633,-0.928 -0.633,-1.634 0,-1.513 1.21,-2.306 3.63,-2.379 l 1.271,-0.041 v -0.465 c 0,-0.588 -0.126,-1.022 -0.38,-1.302 -0.252,-0.28 -0.657,-0.42 -1.213,-0.42 -0.624,0 -1.331,0.191 -2.119,0.574 l -0.349,-0.868 c 0.369,-0.201 0.773,-0.358 1.214,-0.472 0.439,-0.114 0.88,-0.171 1.322,-0.171 0.894,0 1.555,0.198 1.986,0.595 0.43,0.396 0.646,1.032 0.646,1.907 v 5.114 h -0.839 z m -2.563,-0.801 c 0.706,0 1.261,-0.193 1.665,-0.581 0.402,-0.387 0.604,-0.93 0.604,-1.627 v -0.677 l -1.135,0.048 c -0.902,0.032 -1.553,0.172 -1.952,0.42 -0.398,0.249 -0.598,0.635 -0.598,1.159 0,0.41 0.124,0.722 0.373,0.937 0.249,0.215 0.597,0.321 1.043,0.321 z"
         id="path3020" />
    </g>
  </g>
</svg>
